<svg xmlns="http://www.w3.org/2000/svg" xmlns:xlink="http://www.w3.org/1999/xlink" width="90" zoomAndPan="magnify" viewBox="0 0 67.5 30.000001" height="40" preserveAspectRatio="xMidYMid meet" version="1.0"><defs><g/></defs><g fill="#000000" fill-opacity="1"><g transform="translate(26.883646, 21.759731)"><g><path d="M 9.671875 -15.28125 C 10.054688 -14.84375 10.347656 -14.378906 10.546875 -13.890625 L 17.71875 -13.890625 L 17.71875 -12.640625 L 1.03125 -12.640625 L 1.03125 -13.890625 L 8.796875 -13.890625 C 8.640625 -14.234375 8.441406 -14.550781 8.203125 -14.84375 Z M 3.515625 -11.609375 L 15.828125 -11.609375 L 15.828125 -7.71875 L 3.515625 -7.71875 Z M 4.984375 -9.109375 L 14.359375 -9.109375 L 14.359375 -10.28125 L 4.984375 -10.28125 Z M 2.859375 -6.828125 L 15.828125 -6.828125 L 15.828125 -5.21875 C 14.210938 -4.625 12.40625 -4.0625 10.40625 -3.53125 L 10.40625 -3.015625 L 17.5 -3.015625 L 17.5 -1.609375 L 10.40625 -1.609375 L 10.40625 0.375 C 10.40625 0.8125 10.234375 1.148438 9.890625 1.390625 C 9.546875 1.640625 9.054688 1.765625 8.421875 1.765625 C 7.785156 1.765625 7.148438 1.691406 6.515625 1.546875 L 6.296875 0.140625 C 6.785156 0.296875 7.375 0.375 8.0625 0.375 C 8.644531 0.375 8.9375 0.273438 8.9375 0.078125 L 8.9375 -1.609375 L 1.171875 -1.609375 L 1.171875 -3.015625 L 8.9375 -3.015625 L 8.9375 -4.265625 C 10.300781 -4.648438 11.546875 -5.039062 12.671875 -5.4375 L 2.859375 -5.4375 Z M 2.859375 -6.828125 "/></g></g></g><g fill="#000000" fill-opacity="1"><g transform="translate(47.492403, 21.759731)"><g><path d="M 1.6875 -14.921875 L 17.140625 -14.921875 L 17.140625 -13.515625 L 15.15625 -13.515625 L 15.15625 -7.640625 L 13.703125 -7.640625 L 13.703125 -13.515625 L 1.6875 -13.515625 Z M 3.21875 -12.265625 L 10.84375 -12.265625 L 10.84375 -8.375 L 3.21875 -8.375 Z M 4.6875 -9.546875 L 9.375 -9.546875 L 9.375 -11.09375 L 4.6875 -11.09375 Z M 0.953125 -7.125 L 17.796875 -7.125 L 17.796875 -5.734375 L 15.234375 -5.734375 L 15.234375 -0.140625 C 15.234375 0.535156 15.109375 1.007812 14.859375 1.28125 C 14.617188 1.550781 14.082031 1.6875 13.25 1.6875 C 12.71875 1.6875 12.207031 1.640625 11.71875 1.546875 L 11.421875 0.078125 C 12.054688 0.222656 12.664062 0.296875 13.25 0.296875 C 13.59375 0.296875 13.765625 0.0703125 13.765625 -0.375 L 13.765625 -5.734375 L 0.953125 -5.734375 Z M 11.0625 -4.625 L 11.0625 -0.59375 L 4.390625 -0.59375 L 4.390625 0.515625 L 3 0.515625 L 3 -4.625 Z M 4.390625 -1.84375 L 9.671875 -1.84375 L 9.671875 -3.375 L 4.390625 -3.375 Z M 4.390625 -1.84375 "/></g></g></g><path fill="#231815" d="M 2.230469 20.160156 L 2.804688 19.953125 L 3.382812 19.753906 L 4.523438 19.316406 L 5.644531 18.851562 C 6.023438 18.703125 6.390625 18.53125 6.757812 18.371094 L 7.851562 17.859375 C 8.210938 17.679688 8.566406 17.5 8.925781 17.300781 C 9.625 16.914062 10.3125 16.496094 10.972656 16.050781 L 11.917969 15.332031 C 12.226562 15.085938 12.53125 14.820312 12.8125 14.554688 C 13.105469 14.285156 13.382812 13.996094 13.640625 13.695312 C 13.898438 13.390625 14.140625 13.078125 14.359375 12.746094 C 14.578125 12.410156 14.777344 12.058594 14.953125 11.695312 C 15.121094 11.335938 15.253906 10.964844 15.359375 10.578125 C 15.46875 10.191406 15.539062 9.796875 15.574219 9.394531 C 15.609375 8.992188 15.609375 8.589844 15.574219 8.183594 L 15.640625 8.183594 C 15.445312 8.488281 15.265625 8.808594 15.09375 9.128906 C 14.925781 9.453125 14.785156 9.792969 14.652344 10.132812 C 14.519531 10.476562 14.414062 10.804688 14.3125 11.15625 C 14.214844 11.503906 14.132812 11.851562 14.074219 12.207031 C 13.980469 12.917969 13.960938 13.632812 14.011719 14.347656 C 13.992188 14.699219 13.992188 15.046875 14.011719 15.398438 C 14.058594 15.75 14.125 16.097656 14.199219 16.4375 C 14.273438 16.78125 14.378906 17.128906 14.492188 17.460938 C 14.605469 17.792969 14.734375 18.132812 14.867188 18.464844 L 14.972656 18.710938 L 15.085938 18.949219 L 15.320312 19.429688 C 15.480469 19.753906 15.652344 20.066406 15.839844 20.378906 L 15.972656 20.613281 L 16.113281 20.839844 L 16.40625 21.296875 C 16.507812 21.457031 16.613281 21.597656 16.707031 21.75 L 17.019531 22.203125 L 17.347656 22.648438 L 17.679688 23.085938 L 18.347656 23.964844 L 18.40625 24.03125 L 18.328125 24.03125 C 17.640625 24.164062 16.945312 24.214844 16.246094 24.183594 C 15.890625 24.167969 15.539062 24.121094 15.1875 24.050781 C 14.828125 23.980469 14.488281 23.851562 14.171875 23.671875 C 13.816406 23.476562 13.542969 23.203125 13.351562 22.847656 C 13.160156 22.492188 13.078125 22.109375 13.105469 21.703125 C 13.128906 21.328125 13.199219 20.960938 13.320312 20.605469 C 13.4375 20.257812 13.578125 19.925781 13.746094 19.601562 C 14.105469 18.988281 14.507812 18.410156 14.953125 17.859375 C 15.367188 17.292969 15.8125 16.75 16.273438 16.222656 C 16.734375 15.691406 17.214844 15.199219 17.707031 14.699219 L 18.433594 13.96875 C 18.667969 13.722656 18.90625 13.476562 19.132812 13.21875 C 19.59375 12.71875 20.074219 12.207031 20.441406 11.667969 C 20.847656 11.140625 21.203125 10.578125 21.507812 9.984375 C 21.65625 9.679688 21.777344 9.363281 21.867188 9.035156 C 21.957031 8.726562 21.996094 8.410156 21.988281 8.089844 C 21.980469 7.792969 21.910156 7.511719 21.773438 7.246094 C 21.621094 6.976562 21.425781 6.75 21.179688 6.566406 C 20.925781 6.363281 20.652344 6.199219 20.355469 6.074219 C 20.050781 5.9375 19.738281 5.824219 19.414062 5.742188 C 18.761719 5.5625 18.097656 5.433594 17.425781 5.363281 C 16.753906 5.285156 16.066406 5.257812 15.378906 5.238281 C 14.6875 5.222656 14.011719 5.238281 13.320312 5.238281 L 13.320312 5.230469 C 14 5.117188 14.6875 5.050781 15.386719 5.003906 C 16.082031 4.964844 16.777344 4.964844 17.472656 5.003906 C 18.171875 5.03125 18.867188 5.117188 19.554688 5.269531 C 20.277344 5.410156 20.945312 5.6875 21.554688 6.101562 C 21.875 6.332031 22.140625 6.617188 22.347656 6.953125 C 22.546875 7.304688 22.660156 7.683594 22.6875 8.089844 C 22.6875 8.480469 22.625 8.855469 22.5 9.226562 C 22.402344 9.582031 22.277344 9.929688 22.121094 10.265625 C 21.808594 10.910156 21.4375 11.519531 21.007812 12.09375 C 20.589844 12.660156 20.144531 13.203125 19.667969 13.722656 C 19.195312 14.242188 18.726562 14.746094 18.214844 15.226562 C 17.707031 15.710938 17.273438 16.175781 16.800781 16.714844 C 16.332031 17.253906 15.90625 17.734375 15.492188 18.265625 C 15.070312 18.792969 14.691406 19.347656 14.359375 19.933594 C 14.195312 20.21875 14.050781 20.515625 13.925781 20.824219 C 13.808594 21.128906 13.730469 21.445312 13.699219 21.769531 C 13.660156 22.070312 13.703125 22.359375 13.820312 22.640625 C 13.957031 22.917969 14.15625 23.136719 14.414062 23.304688 C 14.6875 23.480469 14.980469 23.613281 15.292969 23.699219 C 15.601562 23.792969 15.917969 23.863281 16.234375 23.910156 C 16.574219 23.957031 16.914062 23.984375 17.253906 23.992188 C 17.59375 23.992188 17.941406 23.992188 18.28125 23.992188 L 18.28125 24.058594 L 17.847656 23.71875 L 17.425781 23.351562 C 17.28125 23.226562 17.140625 23.105469 17.007812 22.972656 L 16.660156 22.59375 C 16.527344 22.449219 16.394531 22.316406 16.273438 22.175781 C 16.152344 22.035156 16.019531 21.890625 15.90625 21.75 C 15.671875 21.457031 15.433594 21.164062 15.21875 20.851562 C 15 20.539062 14.800781 20.214844 14.605469 19.902344 C 14.40625 19.589844 14.246094 19.242188 14.085938 18.890625 C 13.769531 18.1875 13.527344 17.457031 13.359375 16.703125 C 13.277344 16.328125 13.214844 15.949219 13.179688 15.566406 C 13.140625 15.183594 13.125 14.800781 13.132812 14.414062 C 13.140625 13.644531 13.246094 12.886719 13.445312 12.140625 C 13.546875 11.769531 13.667969 11.40625 13.8125 11.050781 C 13.953125 10.699219 14.113281 10.355469 14.292969 10.019531 C 14.476562 9.695312 14.679688 9.378906 14.898438 9.074219 C 15.117188 8.769531 15.363281 8.484375 15.632812 8.222656 L 15.699219 8.15625 L 15.699219 8.242188 C 15.699219 8.449219 15.773438 8.648438 15.792969 8.855469 C 15.804688 9.0625 15.804688 9.273438 15.792969 9.480469 C 15.800781 9.902344 15.765625 10.316406 15.6875 10.730469 C 15.613281 11.144531 15.5 11.550781 15.347656 11.941406 C 15.195312 12.339844 15.011719 12.71875 14.800781 13.089844 C 14.375 13.796875 13.871094 14.4375 13.285156 15.019531 C 12.992188 15.3125 12.679688 15.597656 12.339844 15.863281 C 12 16.125 11.679688 16.371094 11.339844 16.609375 C 11 16.847656 10.652344 17.074219 10.292969 17.292969 L 9.226562 17.859375 C 8.859375 18.046875 8.492188 18.230469 8.117188 18.398438 C 7.738281 18.570312 7.359375 18.730469 6.972656 18.882812 C 6.585938 19.035156 6.210938 19.164062 5.8125 19.296875 C 5.417969 19.429688 5.039062 19.554688 4.644531 19.667969 L 3.457031 19.980469 C 3.050781 20.074219 2.65625 20.160156 2.25 20.226562 Z M 2.230469 20.160156 " fill-opacity="1" fill-rule="nonzero"/><path fill="#231815" d="M 11.113281 9.652344 L 8.511719 10.152344 L 6.039062 9.207031 L 6.539062 11.820312 L 5.523438 14.261719 L 8.125 13.761719 L 10.597656 14.707031 L 10.132812 12.179688 Z M 9.585938 13.4375 L 8.246094 12.9375 L 6.824219 13.210938 L 7.40625 11.867188 L 7.132812 10.445312 L 8.472656 10.976562 L 9.898438 10.703125 L 9.292969 12.046875 Z M 9.585938 13.4375 " fill-opacity="1" fill-rule="nonzero"/></svg>