<?xml version="1.0" encoding="utf-8"?>
<!-- Generator: Adobe Illustrator 23.0.2, SVG Export Plug-In . SVG Version: 6.00 Build 0)  -->
<svg version="1.2" baseProfile="tiny" id="圖層_1"
	 xmlns="http://www.w3.org/2000/svg" xmlns:xlink="http://www.w3.org/1999/xlink" x="0px" y="0px" viewBox="0 0 152 85"
	 xml:space="preserve">
<g>
	<path fill="#004B1D" d="M16.36,64.48c1.32,2.01,3.76,3.95,5.99,4.9c-0.21,0.22-0.57,0.67-0.71,0.94c-2.14-1.03-4.38-2.89-5.85-4.83
		c-1.45,1.84-3.85,3.85-5.84,4.93c-0.13-0.27-0.41-0.64-0.65-0.87c1.76-0.84,3.87-2.47,5.27-4.06h-2.52v-1.01H16.36z M16.3,75.91
		h5.53v0.98H9.85v-0.98h5.37v-2.4h-3.97v-0.95h3.97v-2.21h-3.36v-0.97h7.91v0.97H16.3v2.21h4.02v0.95H16.3V75.91z"/>
	<path fill="#004B1D" d="M38.69,64.75v12.58h-1.03v-0.67h-9.72v0.67h-1.01V64.75H38.69z M37.66,75.7v-9.96h-9.72v9.96H37.66z
		 M32.85,73.5c-1.47,0.29-2.98,0.59-4.14,0.81l-0.14-0.81c1.08-0.17,2.65-0.46,4.24-0.75L32.85,73.5z M36.37,69.29
		c-0.35,1.36-0.89,2.55-1.57,3.54c0.3,0.77,0.68,1.26,1.15,1.33c0.2,0.06,0.34-0.56,0.44-1.49c0.17,0.17,0.48,0.39,0.68,0.48
		c-0.18,1.58-0.67,2.15-1.4,1.87c-0.62-0.13-1.09-0.64-1.47-1.4c-0.55,0.65-1.18,1.2-1.87,1.66c-0.13-0.17-0.44-0.52-0.62-0.68
		c0.84-0.49,1.54-1.13,2.14-1.89c-0.38-1.14-0.61-2.63-0.78-4.27h-4.34v-0.81h4.27c-0.04-0.51-0.08-1.01-0.11-1.53h0.91
		c0.03,0.52,0.06,1.03,0.08,1.53h3.09v0.81h-3.02c0.11,1.24,0.28,2.4,0.52,3.33c0.45-0.78,0.81-1.68,1.05-2.66L36.37,69.29z
		 M32.34,69.35v2.81h-3.13v-2.81H32.34z M31.58,70.03h-1.63v1.45h1.63V70.03z M36.08,67.47c-0.31-0.32-0.96-0.77-1.52-1.01l0.5-0.54
		c0.55,0.26,1.2,0.65,1.53,0.98L36.08,67.47z"/>
	<path fill="#004B1D" d="M45.38,72.76c-0.17,1.36-0.52,2.79-1.23,3.93c-0.2-0.16-0.64-0.38-0.89-0.48c1.11-1.72,1.26-4.11,1.26-5.73
		v-1.95h5.78v4.22H45.38z M48.21,64.58c-0.07,0.12-0.16,0.23-0.23,0.35c1.11,0.68,2.42,1.52,3.12,2.1l-0.55,0.88
		c-0.69-0.59-2-1.49-3.13-2.21c-0.96,1.2-2.28,2.23-3.56,2.94c-0.11-0.25-0.4-0.75-0.58-0.98c1.56-0.77,3.13-2,3.98-3.44
		L48.21,64.58z M45.36,73.43h5.26v3.75h-0.94v-0.56h-3.42v0.59h-0.91V73.43z M49.32,71.97v-0.98H45.5c-0.01,0.3-0.03,0.65-0.06,0.98
		H49.32z M45.5,69.33v0.93h3.81v-0.93H45.5z M49.02,67.11v0.71h-2.98v-0.71H49.02z M46.27,74.24v1.52h3.42v-1.52H46.27z
		 M52.89,73.61h-0.99v-7.92h0.99V73.61z M55.57,64.16v11.7c0,0.68-0.17,1.01-0.57,1.19c-0.43,0.19-1.12,0.22-2.27,0.22
		c-0.06-0.29-0.21-0.77-0.35-1.07c0.85,0.03,1.62,0.03,1.84,0.01c0.24-0.01,0.33-0.09,0.33-0.33V64.16H55.57z"/>
	<path fill="#004B1D" d="M62.6,73.24c-0.34,1.03-0.94,2.15-1.46,2.88c-0.17-0.13-0.52-0.4-0.74-0.52c0.55-0.68,1.05-1.66,1.33-2.6
		L62.6,73.24z M64.35,72.23v5.02h-1.03v-5.02h-2.82V71.3h2.82v-1.52h-2.89v-0.91h3.91c0.27-0.67,0.6-1.62,0.77-2.28l0.96,0.2
		c-0.25,0.69-0.52,1.48-0.79,2.08h1.8v0.91h-2.72v1.52h2.57v0.93H64.35z M66.86,66.5h-6.21v-0.9h2.78
		c-0.18-0.43-0.43-0.93-0.62-1.32l1.02-0.28c0.3,0.49,0.61,1.11,0.79,1.59h2.24V66.5z M62.11,68.81c-0.07-0.53-0.3-1.37-0.54-2.01
		l0.84-0.2c0.28,0.62,0.52,1.43,0.58,1.97L62.11,68.81z M65.71,72.91c0.45,0.71,0.95,1.65,1.19,2.27l-0.75,0.43
		c-0.23-0.62-0.74-1.62-1.16-2.31L65.71,72.91z M73.26,69.94H71.7v7.29h-1.02v-7.29h-1.94v0.51c0,2.07-0.18,4.9-1.47,6.78
		c-0.17-0.2-0.58-0.54-0.81-0.65c1.19-1.74,1.3-4.21,1.3-6.13v-4.97c1.59-0.26,3.4-0.69,4.41-1.13l0.85,0.8
		c-1.16,0.45-2.79,0.81-4.28,1.04v2.75h4.52V69.94z"/>
	<path fill="#004B1D" d="M79.38,72.76c-0.17,1.36-0.52,2.79-1.23,3.93c-0.2-0.16-0.64-0.38-0.89-0.48c1.11-1.72,1.26-4.11,1.26-5.73
		v-1.95h5.78v4.22H79.38z M82.21,64.58c-0.07,0.12-0.16,0.23-0.23,0.35c1.11,0.68,2.42,1.52,3.12,2.1l-0.55,0.88
		c-0.69-0.59-2-1.49-3.13-2.21c-0.96,1.2-2.28,2.23-3.56,2.94c-0.11-0.25-0.4-0.75-0.58-0.98c1.56-0.77,3.13-2,3.98-3.44
		L82.21,64.58z M79.37,73.43h5.26v3.75h-0.94v-0.56h-3.42v0.59h-0.91V73.43z M83.32,71.97v-0.98h-3.81
		c-0.01,0.3-0.03,0.65-0.06,0.98H83.32z M79.51,69.33v0.93h3.81v-0.93H79.51z M83.02,67.11v0.71h-2.98v-0.71H83.02z M80.27,74.24
		v1.52h3.42v-1.52H80.27z M86.89,73.61H85.9v-7.92h0.99V73.61z M89.57,64.16v11.7c0,0.68-0.17,1.01-0.57,1.19
		c-0.43,0.19-1.12,0.22-2.27,0.22c-0.06-0.29-0.21-0.77-0.35-1.07c0.85,0.03,1.62,0.03,1.84,0.01c0.24-0.01,0.33-0.09,0.33-0.33
		V64.16H89.57z"/>
	<path fill="#004B1D" d="M99.6,74.97c-1.02,0.78-2.88,1.52-4.35,1.87c-0.14-0.26-0.43-0.61-0.64-0.81c1.46-0.25,3.26-0.81,4.19-1.43
		L99.6,74.97z M107,72.96v0.91h-5.68v3.43h-1.03v-3.43h-5.6v-0.91h5.6v-1.08h-4.27v-0.82h4.27v-1.04h-4.99v-0.87h3.06
		c-0.14-0.41-0.43-0.97-0.72-1.39l0.75-0.2h-3.66v-0.9h2.28c-0.21-0.58-0.69-1.45-1.13-2.1l0.89-0.32c0.5,0.65,1.01,1.55,1.2,2.13
		l-0.71,0.29h1.73V64.1h0.99v2.56h1.69V64.1h1.01v2.56h1.71l-0.57-0.19c0.4-0.59,0.85-1.55,1.09-2.2l1.08,0.3
		c-0.4,0.74-0.86,1.53-1.23,2.08h2.18v0.9h-3.68l0.92,0.26c-0.33,0.48-0.67,0.97-0.98,1.33h3.24v0.87h-5.13v1.04h4.44v0.82h-4.44
		v1.08H107z M98.65,67.56c0.33,0.45,0.62,1.04,0.75,1.43l-0.58,0.16h3.91l-0.5-0.16c0.28-0.4,0.64-1.01,0.84-1.43H98.65z
		 M102.86,74.53c1.33,0.45,3.13,1.14,4.11,1.61l-0.65,0.68c-0.94-0.46-2.73-1.2-4.08-1.71L102.86,74.53z"/>
	<path fill="#004B1D" d="M115.55,72.7c-0.04-0.25-0.1-0.52-0.18-0.82c-2.98,0.58-3.39,0.68-3.66,0.85c-0.04-0.22-0.2-0.68-0.31-0.94
		c0.28-0.07,0.61-0.45,1.01-0.97c0.23-0.26,0.68-0.9,1.19-1.72c-1.49,0.19-1.79,0.26-1.97,0.36c-0.06-0.22-0.21-0.68-0.33-0.95
		c0.23-0.06,0.47-0.36,0.72-0.8c0.28-0.42,1.18-2.1,1.67-3.64l0.95,0.39c-0.54,1.37-1.26,2.79-1.98,3.89l1.47-0.14
		c0.35-0.62,0.72-1.29,1.01-1.95l0.88,0.45c-0.88,1.71-1.97,3.41-3.08,4.77l2.18-0.38c-0.13-0.42-0.27-0.85-0.43-1.23l0.75-0.22
		c0.37,0.9,0.75,2.07,0.89,2.78L115.55,72.7z M112.95,73.47c-0.18,1.23-0.48,2.59-0.82,3.47c-0.16-0.1-0.55-0.23-0.77-0.29
		c0.38-0.88,0.64-2.17,0.79-3.33L112.95,73.47z M114.19,73.3c0.17,0.98,0.34,2.23,0.4,3.07l-0.79,0.17
		c-0.03-0.82-0.18-2.1-0.35-3.07L114.19,73.3z M115.45,72.99c0.26,0.8,0.54,1.81,0.62,2.47l-0.72,0.23
		c-0.11-0.68-0.38-1.71-0.61-2.5L115.45,72.99z M115.98,76.17c0.41-0.78,0.78-2.05,0.96-2.98l0.75,0.27
		c-0.21,0.95-0.52,2.27-0.95,3.08L115.98,76.17z M123.59,72.15h-6.63v-6.7h1.94c0.18-0.45,0.4-1.04,0.51-1.46l1.05,0.22
		c-0.2,0.43-0.41,0.88-0.61,1.24h3.74V72.15z M122.62,66.36h-4.73v4.9h4.73V66.36z M121.36,76.13c0.44,0,0.52-0.17,0.58-1.5
		c0.2,0.16,0.54,0.27,0.79,0.35c-0.1,1.58-0.35,1.97-1.29,1.97h-2.04c-1.15,0-1.45-0.25-1.45-1.19v-2.56h0.91v2.54
		c0,0.33,0.08,0.39,0.62,0.39H121.36z M121.73,70.78c-0.21-0.35-0.52-0.74-0.86-1.17c-0.51,0.55-1.09,1.04-1.77,1.49
		c-0.1-0.17-0.3-0.39-0.47-0.51c0.69-0.43,1.29-0.95,1.79-1.47c-0.18-0.23-0.4-0.43-0.61-0.65c-0.35,0.36-0.77,0.72-1.23,1.04
		c-0.1-0.14-0.33-0.38-0.48-0.48c0.47-0.3,0.88-0.68,1.23-1.04c-0.3-0.3-0.58-0.58-0.88-0.81l0.58-0.39
		c0.26,0.2,0.51,0.43,0.75,0.65c0.24-0.3,0.44-0.62,0.58-0.9l0.72,0.13c-0.21,0.41-0.48,0.82-0.81,1.24
		c0.21,0.2,0.43,0.42,0.64,0.64c0.31-0.42,0.6-0.84,0.78-1.21l0.74,0.12c-0.28,0.54-0.64,1.07-1.08,1.61
		c0.41,0.45,0.77,0.9,0.99,1.26L121.73,70.78z M120.94,75.03c-0.28-0.58-0.85-1.58-1.33-2.31l0.69-0.33
		c0.48,0.69,1.09,1.66,1.36,2.21L120.94,75.03z M123.09,73.12c0.45,0.91,0.98,2.07,1.25,2.81l-0.79,0.38
		c-0.24-0.77-0.78-1.97-1.2-2.86L123.09,73.12z"/>
	<path fill="#004B1D" d="M135.66,64.39c-0.07,0.09-0.14,0.19-0.2,0.27c1.32,1.32,3.77,2.47,5.98,3.01
		c-0.21,0.19-0.51,0.56-0.67,0.82c-1.15-0.33-2.37-0.82-3.47-1.45v0.45h-4.9v-0.39c-1.09,0.61-2.3,1.1-3.47,1.48
		c-0.11-0.19-0.41-0.62-0.59-0.82c2.57-0.69,5.07-1.97,6.41-3.72L135.66,64.39z M130.09,68.21h9.47v3.64h-9.47V68.21z M130.91,72.53
		h7.96v4.7h-1.06V76.8h-5.87v0.48h-1.03V72.53z M131,71.11h3.34v-2.15H131V71.11z M132.6,69.12c0.37,0.51,0.72,1.17,0.85,1.63
		l-0.81,0.3c-0.11-0.46-0.44-1.16-0.79-1.69L132.6,69.12z M131.95,73.3v0.98h5.87V73.3H131.95z M137.81,76.03v-0.98h-5.87v0.98
		H137.81z M136.75,66.72c-0.68-0.43-1.33-0.93-1.87-1.45c-0.54,0.54-1.16,1.03-1.83,1.45H136.75z M138.61,68.96h-3.37v2.15h3.37
		V68.96z M136.14,70.79c0.26-0.48,0.62-1.24,0.78-1.74l0.89,0.29c-0.31,0.62-0.67,1.27-0.96,1.71L136.14,70.79z"/>
</g>
<g>
	<path fill="#8DC21F" d="M59.56,7.39c0.9,0,1.67,0.29,2.3,0.86c0.63,0.58,0.95,1.27,0.95,2.09c0,0.82-0.32,1.51-0.95,2.1
		c-0.63,0.59-1.4,0.88-2.3,0.88c-0.9,0-1.67-0.29-2.32-0.88c-0.64-0.58-0.96-1.28-0.96-2.1c0-0.82,0.32-1.52,0.95-2.09
		C57.86,7.68,58.63,7.39,59.56,7.39z"/>
	<path fill="#003618" d="M48.07,9.32H45.2v29.72L18.56,9.32H9.25l2.91,2.39c0.09,0.05,0.19,0.1,0.27,0.15
		c0.43,0.29,1.01,0.78,1.71,1.47l0.31,0.26l-0.02,0.03c0.28,0.28,0.57,0.58,0.87,0.9l-0.19,34.42h2.93V17.67l28.82,31.91h1.15
		L48.07,9.32z"/>
	<polygon fill="#8DC21F" points="62.63,48.94 56.86,48.94 56.86,18.19 62.63,15.99 	"/>
	<path fill="#00451B" d="M90.91,46.68c-0.85,0.07-1.84,0.1-2.98,0.1h-7.39c-1.2,0-2.02-0.12-2.44-0.34
		c-0.43-0.23-0.73-0.52-0.9-0.91c-0.17-0.38-0.25-1.44-0.25-3.2V29.27h9.57c0.48,0,0.93,0.01,1.34,0.04h6.7v-2.22h-6.51
		c-0.47,0.03-0.97,0.05-1.52,0.05h-9.57V11.48h11.96c0.37,0,0.71,0.01,1.04,0.02v-0.03h8.3l-0.12-2.15H71.26v39.62h26.85l0.86-2.26
		H90.91z"/>
	<path fill="#E28700" d="M100.46,48.94h3.38l2.5-5.21c0.18-0.53,0.42-1.12,0.74-1.8l2.96-6.25h16.87l2.64,5.7
		c0.43,0.92,0.75,1.72,0.96,2.41l2.01,5.16H140l-2.94-5.65c-0.31-0.57-0.63-1.21-0.95-1.91L120.94,8.41h-1.13l-15.33,32.61
		c-0.6,1.29-1.17,2.37-1.72,3.27L100.46,48.94z M118.62,17.5l7.39,16.01h-14.98L118.62,17.5z"/>
</g>
<g>
	<path fill="#3E3A39" d="M9.07,56.16h0.38l1.24,2.12l0.35,0.67h0.02c-0.02-0.33-0.05-0.68-0.05-1.02v-1.77h0.35v3.28h-0.39
		l-1.23-2.12L9.4,56.65H9.38c0.02,0.33,0.04,0.66,0.04,1v1.79H9.07V56.16z"/>
	<path fill="#3E3A39" d="M12.21,58.82c0-0.53,0.46-0.79,1.5-0.9c0-0.33-0.1-0.65-0.51-0.65c-0.29,0-0.55,0.14-0.73,0.27l-0.15-0.26
		c0.21-0.14,0.55-0.32,0.94-0.32c0.59,0,0.82,0.4,0.82,0.98v1.5h-0.3l-0.03-0.3h-0.01c-0.23,0.2-0.51,0.35-0.81,0.35
		C12.51,59.5,12.21,59.26,12.21,58.82z M13.71,58.87v-0.71c-0.85,0.1-1.15,0.3-1.15,0.64c0,0.29,0.2,0.41,0.45,0.41
		C13.26,59.2,13.46,59.09,13.71,58.87z"/>
	<path fill="#3E3A39" d="M14.98,58.71v-1.39h-0.37v-0.28l0.38-0.02l0.04-0.68h0.31v0.68h0.67v0.3h-0.67v1.4
		c0,0.29,0.09,0.47,0.38,0.47c0.09,0,0.2-0.03,0.28-0.06l0.07,0.27c-0.13,0.04-0.3,0.09-0.43,0.09
		C15.14,59.5,14.98,59.18,14.98,58.71z"/>
	<path fill="#3E3A39" d="M16.59,56.26c0-0.16,0.11-0.25,0.26-0.25c0.14,0,0.26,0.09,0.26,0.25c0,0.14-0.12,0.25-0.26,0.25
		C16.7,56.5,16.59,56.4,16.59,56.26z M16.67,57.02h0.36v2.42h-0.36V57.02z"/>
	<path fill="#3E3A39" d="M17.8,58.24c0-0.81,0.52-1.28,1.11-1.28s1.11,0.46,1.11,1.28c0,0.8-0.52,1.26-1.11,1.26
		S17.8,59.03,17.8,58.24z M19.65,58.24c0-0.58-0.3-0.97-0.74-0.97c-0.43,0-0.73,0.39-0.73,0.97c0,0.57,0.3,0.96,0.73,0.96
		C19.34,59.19,19.65,58.81,19.65,58.24z"/>
	<path fill="#3E3A39" d="M20.79,57.02h0.3l0.04,0.35h0.01c0.23-0.23,0.48-0.42,0.81-0.42c0.51,0,0.74,0.33,0.74,0.94v1.53h-0.37
		v-1.49c0-0.47-0.14-0.67-0.48-0.67c-0.25,0-0.44,0.13-0.69,0.39v1.77h-0.36V57.02z"/>
	<path fill="#3E3A39" d="M23.45,58.82c0-0.53,0.46-0.79,1.5-0.9c0-0.33-0.1-0.65-0.51-0.65c-0.29,0-0.55,0.14-0.73,0.27l-0.15-0.26
		c0.21-0.14,0.55-0.32,0.94-0.32c0.59,0,0.82,0.4,0.82,0.98v1.5h-0.3l-0.03-0.3h-0.01c-0.23,0.2-0.51,0.35-0.81,0.35
		C23.76,59.5,23.45,59.26,23.45,58.82z M24.95,58.87v-0.71c-0.85,0.1-1.15,0.3-1.15,0.64c0,0.29,0.2,0.41,0.45,0.41
		C24.5,59.2,24.71,59.09,24.95,58.87z"/>
	<path fill="#3E3A39" d="M26.22,59v-3.12h0.36v3.15c0,0.12,0.05,0.17,0.11,0.17c0.02,0,0.04,0,0.08-0.01l0.05,0.28
		c-0.06,0.02-0.12,0.03-0.22,0.03C26.34,59.5,26.22,59.32,26.22,59z"/>
	<path fill="#3E3A39" d="M28.72,56.16h0.37v3.28h-0.37V56.16z"/>
	<path fill="#3E3A39" d="M30.09,57.02h0.29l0.04,0.35h0.01c0.23-0.23,0.48-0.42,0.81-0.42c0.51,0,0.74,0.33,0.74,0.94v1.53h-0.37
		v-1.49c0-0.47-0.14-0.67-0.48-0.67c-0.25,0-0.44,0.13-0.69,0.39v1.77h-0.36V57.02z"/>
	<path fill="#3E3A39" d="M32.9,57.02h0.3l0.04,0.35h0.01c0.23-0.23,0.48-0.42,0.81-0.42c0.51,0,0.74,0.33,0.74,0.94v1.53h-0.37
		v-1.49c0-0.47-0.14-0.67-0.48-0.67c-0.25,0-0.44,0.13-0.69,0.39v1.77H32.9V57.02z"/>
	<path fill="#3E3A39" d="M35.53,58.24c0-0.81,0.52-1.28,1.11-1.28c0.59,0,1.11,0.46,1.11,1.28c0,0.8-0.52,1.26-1.11,1.26
		C36.05,59.5,35.53,59.03,35.53,58.24z M37.38,58.24c0-0.58-0.3-0.97-0.74-0.97c-0.43,0-0.73,0.39-0.73,0.97
		c0,0.57,0.3,0.96,0.73,0.96C37.08,59.19,37.38,58.81,37.38,58.24z"/>
	<path fill="#3E3A39" d="M38.14,57.02h0.38l0.48,1.4c0.07,0.24,0.15,0.48,0.23,0.71h0.02c0.07-0.23,0.16-0.47,0.23-0.71l0.48-1.4
		h0.36l-0.86,2.42h-0.43L38.14,57.02z"/>
	<path fill="#3E3A39" d="M40.65,58.82c0-0.53,0.46-0.79,1.5-0.9c0-0.33-0.1-0.65-0.51-0.65c-0.29,0-0.55,0.14-0.73,0.27l-0.15-0.26
		c0.21-0.14,0.55-0.32,0.94-0.32c0.59,0,0.82,0.4,0.82,0.98v1.5h-0.3l-0.03-0.3h-0.01c-0.23,0.2-0.51,0.35-0.81,0.35
		C40.95,59.5,40.65,59.26,40.65,58.82z M42.15,58.87v-0.71c-0.85,0.1-1.15,0.3-1.15,0.64c0,0.29,0.2,0.41,0.45,0.41
		C41.7,59.2,41.9,59.09,42.15,58.87z"/>
	<path fill="#3E3A39" d="M43.42,58.71v-1.39h-0.37v-0.28l0.38-0.02l0.04-0.68h0.31v0.68h0.67v0.3h-0.67v1.4
		c0,0.29,0.09,0.47,0.38,0.47c0.09,0,0.2-0.03,0.28-0.06l0.07,0.27c-0.13,0.04-0.3,0.09-0.43,0.09
		C43.58,59.5,43.42,59.18,43.42,58.71z"/>
	<path fill="#3E3A39" d="M45.03,56.26c0-0.16,0.11-0.25,0.26-0.25c0.14,0,0.26,0.09,0.26,0.25c0,0.14-0.12,0.25-0.26,0.25
		C45.14,56.5,45.03,56.4,45.03,56.26z M45.11,57.02h0.36v2.42h-0.36V57.02z"/>
	<path fill="#3E3A39" d="M46.24,58.24c0-0.81,0.52-1.28,1.11-1.28c0.59,0,1.11,0.46,1.11,1.28c0,0.8-0.52,1.26-1.11,1.26
		C46.76,59.5,46.24,59.03,46.24,58.24z M48.09,58.24c0-0.58-0.3-0.97-0.74-0.97s-0.73,0.39-0.73,0.97c0,0.57,0.3,0.96,0.73,0.96
		S48.09,58.81,48.09,58.24z"/>
	<path fill="#3E3A39" d="M49.23,57.02h0.3l0.04,0.35h0.01c0.23-0.23,0.48-0.42,0.81-0.42c0.51,0,0.74,0.33,0.74,0.94v1.53h-0.37
		v-1.49c0-0.47-0.14-0.67-0.48-0.67c-0.25,0-0.44,0.13-0.69,0.39v1.77h-0.36V57.02z"/>
	<path fill="#3E3A39" d="M53,58.82c0-0.53,0.46-0.79,1.5-0.9c0-0.33-0.1-0.65-0.51-0.65c-0.29,0-0.55,0.14-0.73,0.27l-0.15-0.26
		c0.21-0.14,0.55-0.32,0.94-0.32c0.59,0,0.82,0.4,0.82,0.98v1.5h-0.3l-0.03-0.3h-0.01c-0.23,0.2-0.51,0.35-0.81,0.35
		C53.31,59.5,53,59.26,53,58.82z M54.5,58.87v-0.71c-0.85,0.1-1.15,0.3-1.15,0.64c0,0.29,0.2,0.41,0.45,0.41
		C54.05,59.2,54.26,59.09,54.5,58.87z"/>
	<path fill="#3E3A39" d="M55.77,57.02h0.29l0.04,0.35h0.01c0.23-0.23,0.48-0.42,0.81-0.42c0.51,0,0.74,0.33,0.74,0.94v1.53H57.3
		v-1.49c0-0.47-0.14-0.67-0.48-0.67c-0.25,0-0.44,0.13-0.69,0.39v1.77h-0.36V57.02z"/>
	<path fill="#3E3A39" d="M58.41,58.24c0-0.78,0.5-1.28,1.05-1.28c0.29,0,0.47,0.11,0.69,0.29l-0.02-0.42v-0.95h0.36v3.56h-0.3
		l-0.04-0.29h-0.01c-0.19,0.19-0.45,0.35-0.75,0.35C58.79,59.5,58.41,59.04,58.41,58.24z M60.13,58.84v-1.31
		c-0.22-0.19-0.41-0.27-0.62-0.27c-0.41,0-0.73,0.4-0.73,0.96c0,0.6,0.25,0.96,0.69,0.96C59.71,59.19,59.92,59.07,60.13,58.84z"/>
	<path fill="#3E3A39" d="M62.59,56.16h1.87v0.31h-1.5v1.08h1.26v0.31h-1.26v1.26h1.54v0.31h-1.92V56.16z"/>
	<path fill="#3E3A39" d="M65.28,57.02h0.3l0.04,0.35h0.01c0.23-0.23,0.48-0.42,0.81-0.42c0.51,0,0.74,0.33,0.74,0.94v1.53h-0.37
		v-1.49c0-0.47-0.14-0.67-0.48-0.67c-0.25,0-0.44,0.13-0.69,0.39v1.77h-0.36V57.02z"/>
	<path fill="#3E3A39" d="M68.17,58.71v-1.39H67.8v-0.28l0.38-0.02l0.04-0.68h0.31v0.68h0.67v0.3h-0.67v1.4
		c0,0.29,0.09,0.47,0.38,0.47c0.09,0,0.2-0.03,0.28-0.06l0.07,0.27c-0.13,0.04-0.3,0.09-0.43,0.09
		C68.33,59.5,68.17,59.18,68.17,58.71z"/>
	<path fill="#3E3A39" d="M69.86,57.02h0.3l0.04,0.44h0.01c0.17-0.3,0.41-0.51,0.68-0.51c0.1,0,0.17,0.01,0.25,0.05l-0.07,0.32
		c-0.08-0.03-0.13-0.04-0.23-0.04c-0.21,0-0.46,0.15-0.62,0.57v1.58h-0.36V57.02z"/>
	<path fill="#3E3A39" d="M71.43,58.24c0-0.79,0.52-1.28,1.08-1.28c0.6,0,0.95,0.43,0.95,1.13c0,0.08,0,0.16-0.02,0.22H71.8
		c0.02,0.54,0.34,0.9,0.83,0.9c0.24,0,0.43-0.08,0.61-0.2l0.13,0.24c-0.21,0.13-0.46,0.25-0.79,0.25
		C71.94,59.5,71.43,59.03,71.43,58.24z M73.14,58.05c0-0.52-0.23-0.79-0.63-0.79c-0.36,0-0.68,0.29-0.72,0.79H73.14z"/>
	<path fill="#3E3A39" d="M74.19,57.02h0.29l0.04,0.28h0.01c0.22-0.18,0.5-0.34,0.78-0.34c0.63,0,0.97,0.49,0.97,1.23
		c0,0.83-0.5,1.31-1.06,1.31c-0.22,0-0.45-0.1-0.68-0.28l0.01,0.43v0.84h-0.36V57.02z M75.9,58.19c0-0.55-0.19-0.93-0.67-0.93
		c-0.21,0-0.43,0.12-0.68,0.35v1.31c0.23,0.2,0.45,0.26,0.62,0.26C75.59,59.19,75.9,58.81,75.9,58.19z"/>
	<path fill="#3E3A39" d="M77.05,57.02h0.29l0.04,0.44h0.01c0.17-0.3,0.41-0.51,0.68-0.51c0.1,0,0.17,0.01,0.25,0.05l-0.07,0.32
		c-0.08-0.03-0.13-0.04-0.23-0.04c-0.21,0-0.46,0.15-0.62,0.57v1.58h-0.36V57.02z"/>
	<path fill="#3E3A39" d="M78.62,58.24c0-0.79,0.52-1.28,1.08-1.28c0.6,0,0.95,0.43,0.95,1.13c0,0.08,0,0.16-0.02,0.22h-1.65
		c0.02,0.54,0.34,0.9,0.83,0.9c0.24,0,0.43-0.08,0.61-0.2l0.13,0.24c-0.21,0.13-0.46,0.25-0.79,0.25
		C79.13,59.5,78.62,59.03,78.62,58.24z M80.33,58.05c0-0.52-0.23-0.79-0.63-0.79c-0.36,0-0.68,0.29-0.72,0.79H80.33z"/>
	<path fill="#3E3A39" d="M81.38,57.02h0.29l0.04,0.35h0.01c0.23-0.23,0.48-0.42,0.81-0.42c0.51,0,0.74,0.33,0.74,0.94v1.53h-0.37
		v-1.49c0-0.47-0.14-0.67-0.48-0.67c-0.25,0-0.44,0.13-0.69,0.39v1.77h-0.36V57.02z"/>
	<path fill="#3E3A39" d="M84.01,58.24c0-0.79,0.52-1.28,1.08-1.28c0.6,0,0.95,0.43,0.95,1.13c0,0.08,0,0.16-0.02,0.22h-1.65
		c0.02,0.54,0.34,0.9,0.83,0.9c0.24,0,0.43-0.08,0.61-0.2l0.13,0.24c-0.21,0.13-0.46,0.25-0.79,0.25
		C84.52,59.5,84.01,59.03,84.01,58.24z M85.72,58.05c0-0.52-0.23-0.79-0.63-0.79c-0.36,0-0.68,0.29-0.72,0.79H85.72z"/>
	<path fill="#3E3A39" d="M86.72,58.56v-1.53h0.36v1.49c0,0.47,0.14,0.67,0.48,0.67c0.26,0,0.44-0.13,0.68-0.43v-1.73h0.36v2.42h-0.3
		l-0.03-0.39h-0.01c-0.23,0.26-0.47,0.44-0.81,0.44C86.95,59.5,86.72,59.17,86.72,58.56z"/>
	<path fill="#3E3A39" d="M89.57,57.02h0.29l0.04,0.44h0.01c0.17-0.3,0.41-0.51,0.68-0.51c0.1,0,0.17,0.01,0.25,0.05l-0.07,0.32
		c-0.08-0.03-0.13-0.04-0.23-0.04c-0.21,0-0.46,0.15-0.62,0.57v1.58h-0.36V57.02z"/>
	<path fill="#3E3A39" d="M91.07,59.17l0.18-0.25c0.21,0.17,0.43,0.29,0.73,0.29c0.34,0,0.5-0.18,0.5-0.4c0-0.26-0.29-0.38-0.56-0.47
		c-0.34-0.13-0.73-0.29-0.73-0.7c0-0.38,0.3-0.68,0.82-0.68c0.29,0,0.55,0.12,0.73,0.27l-0.18,0.24c-0.17-0.12-0.34-0.22-0.56-0.22
		c-0.32,0-0.47,0.17-0.47,0.37c0,0.24,0.27,0.34,0.55,0.43c0.35,0.14,0.75,0.28,0.75,0.74c0,0.39-0.3,0.71-0.86,0.71
		C91.63,59.5,91.3,59.35,91.07,59.17z"/>
	<path fill="#3E3A39" d="M93.54,55.88h0.36v0.99l-0.01,0.51c0.23-0.22,0.48-0.41,0.81-0.41c0.51,0,0.74,0.33,0.74,0.94v1.53h-0.37
		v-1.49c0-0.47-0.14-0.67-0.48-0.67c-0.25,0-0.44,0.13-0.69,0.39v1.77h-0.36V55.88z"/>
	<path fill="#3E3A39" d="M96.26,56.26c0-0.16,0.11-0.25,0.26-0.25c0.14,0,0.26,0.09,0.26,0.25c0,0.14-0.12,0.25-0.26,0.25
		C96.37,56.5,96.26,56.4,96.26,56.26z M96.34,57.02h0.36v2.42h-0.36V57.02z"/>
	<path fill="#3E3A39" d="M97.66,57.02h0.29l0.04,0.28H98c0.22-0.18,0.5-0.34,0.78-0.34c0.63,0,0.97,0.49,0.97,1.23
		c0,0.83-0.5,1.31-1.06,1.31c-0.22,0-0.45-0.1-0.68-0.28l0.01,0.43v0.84h-0.36V57.02z M99.36,58.19c0-0.55-0.19-0.93-0.67-0.93
		c-0.21,0-0.43,0.12-0.68,0.35v1.31c0.23,0.2,0.45,0.26,0.62,0.26C99.06,59.19,99.36,58.81,99.36,58.19z"/>
	<path fill="#3E3A39" d="M103.15,58.41h-1.22l-0.34,1.03h-0.37l1.12-3.28h0.41l1.12,3.28h-0.39L103.15,58.41z M103.06,58.11
		l-0.17-0.53c-0.13-0.37-0.23-0.72-0.34-1.11h-0.02c-0.11,0.39-0.22,0.74-0.34,1.11l-0.17,0.53H103.06z"/>
	<path fill="#3E3A39" d="M104.27,59.17l0.18-0.25c0.21,0.17,0.43,0.29,0.73,0.29c0.34,0,0.5-0.18,0.5-0.4
		c0-0.26-0.29-0.38-0.56-0.47c-0.34-0.13-0.73-0.29-0.73-0.7c0-0.38,0.3-0.68,0.82-0.68c0.29,0,0.55,0.12,0.73,0.27l-0.18,0.24
		c-0.17-0.12-0.34-0.22-0.56-0.22c-0.32,0-0.47,0.17-0.47,0.37c0,0.24,0.27,0.34,0.55,0.43c0.35,0.14,0.75,0.28,0.75,0.74
		c0,0.39-0.3,0.71-0.86,0.71C104.82,59.5,104.49,59.35,104.27,59.17z"/>
	<path fill="#3E3A39" d="M106.45,59.17l0.18-0.25c0.21,0.17,0.43,0.29,0.73,0.29c0.34,0,0.5-0.18,0.5-0.4
		c0-0.26-0.29-0.38-0.56-0.47c-0.34-0.13-0.73-0.29-0.73-0.7c0-0.38,0.3-0.68,0.82-0.68c0.29,0,0.55,0.12,0.73,0.27l-0.18,0.24
		c-0.17-0.12-0.34-0.22-0.56-0.22c-0.32,0-0.47,0.17-0.47,0.37c0,0.24,0.27,0.34,0.55,0.43c0.35,0.14,0.75,0.28,0.75,0.74
		c0,0.39-0.3,0.71-0.86,0.71C107,59.5,106.68,59.35,106.45,59.17z"/>
	<path fill="#3E3A39" d="M108.72,58.24c0-0.81,0.52-1.28,1.11-1.28s1.11,0.46,1.11,1.28c0,0.8-0.52,1.26-1.11,1.26
		S108.72,59.03,108.72,58.24z M110.57,58.24c0-0.58-0.3-0.97-0.74-0.97c-0.43,0-0.73,0.39-0.73,0.97c0,0.57,0.3,0.96,0.73,0.96
		C110.27,59.19,110.57,58.81,110.57,58.24z"/>
	<path fill="#3E3A39" d="M111.53,58.24c0-0.81,0.54-1.28,1.15-1.28c0.32,0,0.54,0.13,0.71,0.29l-0.19,0.24
		c-0.14-0.13-0.3-0.22-0.5-0.22c-0.45,0-0.79,0.39-0.79,0.97c0,0.57,0.31,0.96,0.78,0.96c0.23,0,0.43-0.11,0.59-0.25l0.16,0.24
		c-0.21,0.19-0.48,0.31-0.78,0.31C112.02,59.5,111.53,59.03,111.53,58.24z"/>
	<path fill="#3E3A39" d="M114.01,56.26c0-0.16,0.11-0.25,0.26-0.25c0.14,0,0.26,0.09,0.26,0.25c0,0.14-0.12,0.25-0.26,0.25
		C114.12,56.5,114.01,56.4,114.01,56.26z M114.09,57.02h0.36v2.42h-0.36V57.02z"/>
	<path fill="#3E3A39" d="M115.25,58.82c0-0.53,0.46-0.79,1.5-0.9c0-0.33-0.1-0.65-0.51-0.65c-0.29,0-0.55,0.14-0.73,0.27l-0.15-0.26
		c0.21-0.14,0.55-0.32,0.94-0.32c0.59,0,0.82,0.4,0.82,0.98v1.5h-0.3l-0.03-0.3h-0.01c-0.23,0.2-0.51,0.35-0.81,0.35
		C115.55,59.5,115.25,59.26,115.25,58.82z M116.75,58.87v-0.71c-0.85,0.1-1.15,0.3-1.15,0.64c0,0.29,0.2,0.41,0.45,0.41
		C116.3,59.2,116.5,59.09,116.75,58.87z"/>
	<path fill="#3E3A39" d="M118.02,58.71v-1.39h-0.37v-0.28l0.38-0.02l0.04-0.68h0.31v0.68h0.67v0.3h-0.67v1.4
		c0,0.29,0.09,0.47,0.38,0.47c0.09,0,0.2-0.03,0.28-0.06l0.07,0.27c-0.13,0.04-0.3,0.09-0.43,0.09
		C118.18,59.5,118.02,59.18,118.02,58.71z"/>
	<path fill="#3E3A39" d="M119.63,56.26c0-0.16,0.11-0.25,0.26-0.25c0.14,0,0.26,0.09,0.26,0.25c0,0.14-0.12,0.25-0.26,0.25
		C119.74,56.5,119.63,56.4,119.63,56.26z M119.71,57.02h0.36v2.42h-0.36V57.02z"/>
	<path fill="#3E3A39" d="M120.84,58.24c0-0.81,0.52-1.28,1.11-1.28c0.59,0,1.11,0.46,1.11,1.28c0,0.8-0.52,1.26-1.11,1.26
		C121.36,59.5,120.84,59.03,120.84,58.24z M122.69,58.24c0-0.58-0.3-0.97-0.74-0.97c-0.43,0-0.73,0.39-0.73,0.97
		c0,0.57,0.3,0.96,0.73,0.96C122.38,59.19,122.69,58.81,122.69,58.24z"/>
	<path fill="#3E3A39" d="M123.83,57.02h0.29l0.04,0.35h0.01c0.23-0.23,0.48-0.42,0.81-0.42c0.51,0,0.74,0.33,0.74,0.94v1.53h-0.37
		v-1.49c0-0.47-0.14-0.67-0.48-0.67c-0.25,0-0.44,0.13-0.69,0.39v1.77h-0.36V57.02z"/>
	<path fill="#3E3A39" d="M126.46,60.05c0.26-0.13,0.43-0.34,0.43-0.61c-0.02,0-0.04,0-0.05,0c-0.15,0-0.28-0.09-0.28-0.27
		c0-0.17,0.13-0.26,0.28-0.26c0.2,0,0.33,0.17,0.33,0.45c0,0.41-0.25,0.73-0.62,0.9L126.46,60.05z"/>
	<path fill="#3E3A39" d="M130.91,59.44l-0.82-1.41h-0.61v1.41h-0.37v-3.28h1c0.67,0,1.13,0.24,1.13,0.91c0,0.51-0.3,0.81-0.76,0.92
		l0.85,1.45H130.91z M129.48,57.72h0.57c0.53,0,0.82-0.21,0.82-0.65c0-0.45-0.29-0.61-0.82-0.61h-0.57V57.72z"/>
	<path fill="#3E3A39" d="M131.9,59.21c0-0.18,0.13-0.3,0.27-0.3c0.15,0,0.28,0.12,0.28,0.3c0,0.17-0.13,0.29-0.28,0.29
		C132.02,59.5,131.9,59.38,131.9,59.21z"/>
	<path fill="#3E3A39" d="M133.15,57.79c0-1.04,0.57-1.68,1.38-1.68c0.81,0,1.39,0.64,1.39,1.68c0,1.05-0.57,1.71-1.39,1.71
		C133.73,59.5,133.15,58.83,133.15,57.79z M135.54,57.79c0-0.84-0.4-1.36-1.01-1.36c-0.6,0-1,0.52-1,1.36c0,0.84,0.4,1.38,1,1.38
		C135.14,59.17,135.54,58.63,135.54,57.79z"/>
	<path fill="#3E3A39" d="M136.62,59.21c0-0.18,0.13-0.3,0.27-0.3c0.15,0,0.28,0.12,0.28,0.3c0,0.17-0.13,0.29-0.28,0.29
		C136.75,59.5,136.62,59.38,136.62,59.21z"/>
	<path fill="#3E3A39" d="M137.88,57.8c0-1.05,0.61-1.7,1.44-1.7c0.4,0,0.7,0.19,0.89,0.4L140,56.74c-0.17-0.19-0.39-0.31-0.68-0.31
		c-0.64,0-1.06,0.52-1.06,1.36c0,0.85,0.4,1.38,1.05,1.38c0.32,0,0.56-0.13,0.77-0.38l0.21,0.23c-0.26,0.3-0.57,0.47-1,0.47
		C138.48,59.5,137.88,58.86,137.88,57.8z"/>
	<path fill="#3E3A39" d="M140.89,59.21c0-0.18,0.13-0.3,0.27-0.3c0.15,0,0.28,0.12,0.28,0.3c0,0.17-0.13,0.29-0.28,0.29
		C141.01,59.5,140.89,59.38,140.89,59.21z"/>
</g>
</svg>
