<svg xmlns="http://www.w3.org/2000/svg" width="264.209" height="59.822" viewBox="0 0 264.209 59.822">
  <g id="组_16" data-name="组 16" transform="translate(-443.278 -66.266)">
    <path id="路径_31" data-name="路径 31" d="M245.677,44.086h-2.163V57.691h-3.068V44.086H238.46v.578c0,6.312-1.332,10.713-4.677,13.329l-.9-.83a11.656,11.656,0,0,0,2.086-4.854L233.1,54.246c-.678-.981-1.407-1.886-2.112-2.742v6.212h-3.018V52.284a16.847,16.847,0,0,1-4.023,4l-.855-.956a19.564,19.564,0,0,0,4.275-6.539h-3.446V47.279h4.049V45.192h3.018v2.087h3.647v1.509h-3.647v.73a18.7,18.7,0,0,1,3.973,2.791,35.41,35.41,0,0,0,.453-6.589V36.315l2.641.6a18.579,18.579,0,0,0,5.13-2.465l2.388,2.465a21.765,21.765,0,0,1-7.116,1.332v4.276h7.217Zm-10.713.628H223.6V43.18h2.791c-.452-1.257-.955-2.565-1.432-3.621l.93-.578H223.9V37.472h4.778c-.805-.755-1.584-1.409-2.439-2.138l.553-1.131a19.274,19.274,0,0,1,4.527,1.936l-.981,1.333h4.25v1.509h-3.168l2.465.88a19.683,19.683,0,0,1-2.164,3.319h3.244Zm-6.086-2.288-1.357.754h2.565a28.82,28.82,0,0,0,1.106-4.2h-5.1a17.252,17.252,0,0,1,2.791,3.445" transform="translate(282 45.246)" fill="#595757"/>
    <path id="路径_32" data-name="路径 32" d="M260.509,52.234l.453,1.333a42.593,42.593,0,0,1-11.215,4.2l-.881-3.194c2.062-.277,4.376-.679,6.639-1.157V44.69h-6.413V43.03h6.413V34.782H258.6V52.737c.655-.175,1.308-.326,1.911-.5m8.174,4.653a31.69,31.69,0,0,1-4.075-.026c-2.74-.15-3.268-.8-3.268-3.771V34.756h3.068v9.28a33.123,33.123,0,0,0,4.828-4.225l2.339,2.49a25.287,25.287,0,0,1-7.167,3.621v6.463c0,1.182.227,1.459,1.382,1.56a19,19,0,0,0,2.667-.026c1.106-.1,1.182-.779,1.232-5.407h1.283c1.132,5.961,1.132,8.149-2.289,8.375" transform="translate(282 45.246)" fill="#595757"/>
    <path id="路径_33" data-name="路径 33" d="M287.766,39.911v3.346h7.243v9.456c0,2.967-3.094,3.445-6.413,1.659l.277-1.257c2.49.327,2.992.1,2.992-1.132V44.84h-4.1v13.1H284.5V44.84h-4.024V55.529H277.33V43.257H284.5V39.911h-9.38V38.177H285.88c-1.333-1.082-2.792-2.138-3.9-2.892l.5-1.258a27.935,27.935,0,0,1,6.312,2.238l-1.258,1.912h9.582v1.734Z" transform="translate(282 45.246)" fill="#595757"/>
    <path id="路径_34" data-name="路径 34" d="M312.885,52.46a46.63,46.63,0,0,1-11.669,4.5l-.906-3.244,1.257-.151V41.949h2.591V53.14c.477-.075.981-.176,1.483-.277V38.252h-4.828V36.693h12.02v1.559h-4.174v5.205H311.4v1.534h-2.741v7.243c1.383-.326,2.691-.654,3.747-.955Zm10.737,2.516-2.112,3.093a16.117,16.117,0,0,1-4.929-4.829,17.84,17.84,0,0,1-7.847,4.8l-.553-1.233a18.068,18.068,0,0,0,7.092-6.01,22.178,22.178,0,0,1-1.659-6.036,21.548,21.548,0,0,1-2.088,3.219l-1.106-.754c1.785-3.043,3.017-9.079,3.345-12.876l3.294.5a28.678,28.678,0,0,1-1.258,4.829h6.891v1.559h-1.534a20.215,20.215,0,0,1-2.817,9.681,16.717,16.717,0,0,0,5.281,4.05m-7.016-6.715a20.891,20.891,0,0,0,1.409-7.016h-2.767c-.15.377-.3.779-.478,1.156a23.646,23.646,0,0,0,1.836,5.86" transform="translate(282 45.246)" fill="#595757"/>
    <path id="路径_35" data-name="路径 35" d="M348.791,37.472v1.56H331.162v5.306a33.655,33.655,0,0,1-.326,4.854,30.183,30.183,0,0,0,3.545-9.984l3.119.8a30.085,30.085,0,0,1-1.56,4.25v13.53H332.9V49.141a16.893,16.893,0,0,1-1.51,1.484l-.678-.7c-.579,3.42-1.735,6.262-3.546,7.9l-.956-.73c1.659-3.018,1.761-6.916,1.761-13V37.472h10.964c-1.535-.805-3.169-1.559-4.425-2.112l.276-1.207a30.87,30.87,0,0,1,6.714,1.459l-.906,1.86ZM345.8,43.659h2.841v1.534H345.8v9.783c0,2.917-2.692,4.073-7.368,1.559l.3-1.232c3.6.553,3.974.3,3.974-1.258V45.193h-5.961V43.659h5.961V39.811H345.8Zm-6.488,9.028c-.553-1.735-1.434-3.948-2.214-5.734l1.057-.6a22.516,22.516,0,0,1,3.721,4.979Z" transform="translate(282 45.246)" fill="#595757"/>
    <path id="路径_36" data-name="路径 36" d="M352.307,42.5h9.4V40.918h-6.336V39.384h6.336v-1.51h-7.77V36.315h7.77V34.4h3.345v1.911h7.8v1.559h-7.8v1.51h6.791v1.534h-6.791V42.5h9.607v1.636H352.307Zm3.495,3.044h15.492V55.1c0,3.42-3.622,3.7-6.917,1.735l.277-1.257c2.968.427,3.445.126,3.445-1.182V53.014H359v4.878H355.8ZM368.1,47.1H359v1.484h9.1Zm0,2.942H359v1.509h9.1Z" transform="translate(282 45.246)" fill="#595757"/>
    <path id="路径_37" data-name="路径 37" d="M400.435,49.418V51.1h-8.223v6.891h-3.345V51.1H378.028V49.418h3.9v-6.74h6.942v-3.42h-4.578a19.473,19.473,0,0,1-4.853,5.456l-.88-.93a27.208,27.208,0,0,0,4.2-9.682l3.6,1.006a23.788,23.788,0,0,1-1.107,2.49h14.762v1.66h-7.795v3.42h6.462v1.584h-6.462v5.156Zm-11.568-5.156H385.12v5.156h3.747Z" transform="translate(282 45.246)" fill="#595757"/>
    <path id="路径_38" data-name="路径 38" d="M425.125,43.885c-.075,5.558-.226,8.9-.428,11.015-.3,3.294-3.118,3.6-7.544,1.408l.327-1.232c3.671.578,4.049.4,4.124-.856.126-1.936.277-4.476.3-8.751h-12.75c-.226,5.432-1.182,9.682-4.451,12.449l-1.006-.856c2.062-3.747,2.188-7.921,2.188-14.208V35.711h17.956v6.036H409.207v2.138Zm-15.918-3.672h11.417V37.245H409.207ZM413,53.089V55h-2.968V47.255h9.632v5.834Zm0-1.483h3.721V48.714H413Z" transform="translate(282 45.246)" fill="#595757"/>
    <path id="路径_39" data-name="路径 39" d="M225.357,63.643h-.048v4.636h-.9V62.4h1.273c.929,1.634,1.776,3.251,2.466,4.612h.056V62.4h.9v5.877h-1.226c-1.192-2.242-2-3.691-2.521-4.636" transform="translate(282 45.246)" fill="#595757"/>
    <path id="路径_40" data-name="路径 40" d="M230.617,66.181a2.043,2.043,0,0,1,2.033-2.2,1.852,1.852,0,0,1,1.913,1.938,3.564,3.564,0,0,1-.024.424h-2.81c0,.929.393,1.449,1.257,1.449a2.037,2.037,0,0,0,1.306-.464v.752a2.4,2.4,0,0,1-1.425.353,2.021,2.021,0,0,1-2.25-2.25m2.882-.392c.008-.664-.313-1.241-.856-1.241-.569,0-.89.6-.89,1.241Z" transform="translate(282 45.246)" fill="#595757"/>
    <path id="路径_41" data-name="路径 41" d="M235.517,64.115h1.129l.48,1.826c.1.4.241.969.321,1.321h.047c.072-.344.225-.881.329-1.281l.457-1.866h1.128L240,66.2c.1.337.209.753.273,1.058h.048c.064-.313.135-.657.224-1.041l.464-2.106h.929l-1.209,4.155h-1l-.592-2.073c-.1-.352-.224-.793-.281-1.113H238.8c-.056.312-.175.753-.28,1.113L237.9,68.27H236.87Z" transform="translate(282 45.246)" fill="#595757"/>
    <path id="路径_42" data-name="路径 42" d="M246.8,63.075h-1.416V62.4h3.994v.673h-1.449v5.212H246.8Z" transform="translate(282 45.246)" fill="#595757"/>
    <path id="路径_43" data-name="路径 43" d="M253.586,68.295h-1.017a2.64,2.64,0,0,1-.056-.528,1.315,1.315,0,0,1-1.2.625,1.249,1.249,0,0,1-1.424-1.315c0-.888.808-1.361,1.841-1.4a3.14,3.14,0,0,1,.7.024v-.32c0-.513-.233-.769-.68-.769a2.658,2.658,0,0,0-1.546.584v-.744a3.223,3.223,0,0,1,1.7-.473,1.4,1.4,0,0,1,1.577,1.458v1.945a5.382,5.382,0,0,0,.1.913m-1.129-1.578v-.471a2.044,2.044,0,0,0-.672-.017c-.416.041-.872.233-.872.753,0,.441.215.7.6.728a.846.846,0,0,0,.7-.224,1.025,1.025,0,0,0,.248-.769" transform="translate(282 45.246)" fill="#595757"/>
    <path id="路径_44" data-name="路径 44" d="M255.075,62.851a.63.63,0,0,1,.634-.609.613.613,0,1,1,0,1.225.631.631,0,0,1-.634-.616m.1,1.273h1.065v4.155h-1.065Z" transform="translate(282 45.246)" fill="#595757"/>
    <path id="路径_45" data-name="路径 45" d="M257.957,64.116h1v.528a1.284,1.284,0,0,1,1.192-.672c1.161,0,1.817.825,1.817,2.21,0,1.361-.744,2.193-1.769,2.193a1.409,1.409,0,0,1-1.184-.552v2.346h-1.058ZM260.9,66.19c0-.945-.313-1.585-.985-1.593-.561.008-.952.576-1,1.433v.344c.049.856.409,1.345.985,1.345.664,0,1-.633,1-1.529" transform="translate(282 45.246)" fill="#595757"/>
    <path id="路径_46" data-name="路径 46" d="M263.241,66.181a2.043,2.043,0,0,1,2.033-2.2,1.853,1.853,0,0,1,1.914,1.938,3.564,3.564,0,0,1-.024.424h-2.81c0,.929.392,1.449,1.257,1.449a2.037,2.037,0,0,0,1.3-.464v.752a2.4,2.4,0,0,1-1.425.353,2.02,2.02,0,0,1-2.25-2.25m2.882-.392c.007-.664-.313-1.241-.856-1.241-.569,0-.889.6-.889,1.241Z" transform="translate(282 45.246)" fill="#595757"/>
    <path id="路径_47" data-name="路径 47" d="M268.629,62.851a.629.629,0,0,1,.632-.609.613.613,0,1,1,0,1.225.63.63,0,0,1-.632-.616m.1,1.273h1.064v4.155h-1.064Z" transform="translate(282 45.246)" fill="#595757"/>
    <path id="路径_48" data-name="路径 48" d="M276.764,62.979c-1.129,0-1.513,1.177-1.513,2.37,0,1.225.376,2.354,1.656,2.354a2.084,2.084,0,0,0,1.441-.593v.929a2.634,2.634,0,0,1-1.584.376c-1.8,0-2.674-1.344-2.674-3.074,0-1.842.969-3.066,2.578-3.066a3.281,3.281,0,0,1,1.673.424v.952a2.423,2.423,0,0,0-1.577-.672" transform="translate(282 45.246)" fill="#595757"/>
    <path id="路径_49" data-name="路径 49" d="M279.869,62.851a.629.629,0,0,1,.633-.609.613.613,0,1,1,0,1.225.63.63,0,0,1-.633-.616m.1,1.273h1.065v4.155h-1.065Z" transform="translate(282 45.246)" fill="#595757"/>
    <path id="路径_50" data-name="路径 50" d="M284.24,68.4a1.181,1.181,0,0,1-.936-.345,1.494,1.494,0,0,1-.288-1.008V64.692H282.4v-.569h.617V63.011h1.048v1.112h.848v.569h-.848v2.281c0,.521.087.729.512.729a.72.72,0,0,0,.377-.1v.664a1.675,1.675,0,0,1-.713.137" transform="translate(282 45.246)" fill="#595757"/>
    <path id="路径_51" data-name="路径 51" d="M285.962,69.16a1.834,1.834,0,0,0,.656.168c.512,0,.753-.52.984-1.209l-1.745-4h1.177l.657,1.922c.112.3.248.688.344,1h.048c.081-.312.184-.673.273-.952l.568-1.97h1l-1.416,3.851c-.522,1.345-.906,2.066-1.874,2.066a2.437,2.437,0,0,1-.672-.1Z" transform="translate(282 45.246)" fill="#595757"/>
    <path id="路径_52" data-name="路径 52" d="M298.45,65.3v2.595a3.587,3.587,0,0,1-1.961.488c-1.85,0-2.81-.993-2.81-2.947,0-1.889.864-3.162,2.817-3.162a3.981,3.981,0,0,1,1.858.424v.945a2.775,2.775,0,0,0-1.745-.665c-1.362.008-1.769,1.089-1.769,2.418,0,1.37.456,2.234,1.752,2.266a2.332,2.332,0,0,0,.833-.12V65.948h-.976V65.3Z" transform="translate(282 45.246)" fill="#595757"/>
    <path id="路径_53" data-name="路径 53" d="M301.925,68.423a1.969,1.969,0,0,1-2.01-2.21A2.054,2.054,0,0,1,301.957,64a2,2,0,0,1,1.994,2.209,1.96,1.96,0,0,1-2.026,2.218m-.033-3.835c-.664,0-.9.9-.9,1.617,0,.785.311,1.634.968,1.634.681,0,.906-.81.906-1.585,0-.729-.281-1.666-.978-1.666" transform="translate(282 45.246)" fill="#595757"/>
    <path id="路径_54" data-name="路径 54" d="M304.84,64.115h1.121l.664,1.922c.129.36.256.792.368,1.209h.048c.1-.409.232-.841.352-1.209l.577-1.922h.945l-1.45,4.164H306.4Z" transform="translate(282 45.246)" fill="#595757"/>
    <path id="路径_55" data-name="路径 55" d="M309.827,66.181a2.043,2.043,0,0,1,2.034-2.2,1.852,1.852,0,0,1,1.913,1.938,3.564,3.564,0,0,1-.024.424h-2.81c0,.929.393,1.449,1.257,1.449a2.035,2.035,0,0,0,1.305-.464v.752a2.4,2.4,0,0,1-1.425.353,2.021,2.021,0,0,1-2.25-2.25m2.882-.392c.009-.664-.312-1.241-.856-1.241-.569,0-.889.6-.889,1.241Z" transform="translate(282 45.246)" fill="#595757"/>
    <path id="路径_56" data-name="路径 56" d="M315.24,64.123h1c0,.233.007.53-.009.752a1.3,1.3,0,0,1,1.137-.9,1.262,1.262,0,0,1,.288.032v.969a.749.749,0,0,0-.311-.063,1.159,1.159,0,0,0-1.049,1.249v2.121H315.24Z" transform="translate(282 45.246)" fill="#595757"/>
    <path id="路径_57" data-name="路径 57" d="M321.516,65.565c0-.456-.169-.833-.689-.833-.656,0-.9.553-.9,1.329v2.226h-1.058V64.108h.985v.664a1.4,1.4,0,0,1,1.3-.768,1.337,1.337,0,0,1,1.425,1.473v2.8h-1.064Z" transform="translate(282 45.246)" fill="#595757"/>
    <path id="路径_58" data-name="路径 58" d="M324.2,64.108h.992v.657a1.186,1.186,0,0,1,1.1-.761,1.238,1.238,0,0,1,1.273.857A1.384,1.384,0,0,1,328.842,64c1,0,1.432.632,1.432,1.553v2.739H329.21V65.661c0-.585-.169-.944-.673-.944-.56,0-.769.528-.769,1.264v2.3H326.7V65.645c0-.5-.192-.928-.7-.928-.528,0-.752.512-.752,1.257v2.305H324.2Z" transform="translate(282 45.246)" fill="#595757"/>
    <path id="路径_59" data-name="路径 59" d="M331.7,66.181a2.043,2.043,0,0,1,2.033-2.2,1.853,1.853,0,0,1,1.914,1.938,3.558,3.558,0,0,1-.024.424h-2.81c0,.929.392,1.449,1.257,1.449a2.037,2.037,0,0,0,1.3-.464v.752a2.4,2.4,0,0,1-1.425.353,2.02,2.02,0,0,1-2.25-2.25m2.882-.392c.007-.664-.313-1.241-.856-1.241-.569,0-.889.6-.889,1.241Z" transform="translate(282 45.246)" fill="#595757"/>
    <path id="路径_60" data-name="路径 60" d="M339.754,65.565c0-.456-.169-.833-.689-.833-.657,0-.9.553-.9,1.329v2.226h-1.057V64.108h.985v.664a1.4,1.4,0,0,1,1.3-.768,1.337,1.337,0,0,1,1.426,1.473v2.8h-1.064Z" transform="translate(282 45.246)" fill="#595757"/>
    <path id="路径_61" data-name="路径 61" d="M343.925,68.4a1.181,1.181,0,0,1-.936-.345,1.493,1.493,0,0,1-.288-1.008V64.692h-.618v-.569h.618V63.011h1.048v1.112h.848v.569h-.848v2.281c0,.521.087.729.512.729a.72.72,0,0,0,.377-.1v.664a1.675,1.675,0,0,1-.713.137" transform="translate(282 45.246)" fill="#595757"/>
    <path id="路径_62" data-name="路径 62" d="M351.05,68.271h-1.121v-2.5l-1.753-3.37h1.217L350,63.8c.175.384.423.921.552,1.264h.049c.159-.352.407-.872.583-1.232l.61-1.425h1.088l-1.834,3.37Z" transform="translate(282 45.246)" fill="#595757"/>
    <path id="路径_63" data-name="路径 63" d="M355.2,68.423a1.969,1.969,0,0,1-2.01-2.21A2.054,2.054,0,0,1,355.236,64a2,2,0,0,1,1.993,2.209,1.958,1.958,0,0,1-2.024,2.218m-.033-3.835c-.664,0-.9.9-.9,1.617,0,.785.311,1.634.968,1.634.681,0,.9-.81.9-1.585,0-.729-.279-1.666-.976-1.666" transform="translate(282 45.246)" fill="#595757"/>
    <path id="路径_64" data-name="路径 64" d="M359.72,66.829c0,.49.152.858.688.858.609,0,.882-.592.882-1.354V64.116h1.056v4.162h-1v-.632a1.4,1.4,0,0,1-1.3.744,1.245,1.245,0,0,1-1.392-1.4V64.116h1.064Z" transform="translate(282 45.246)" fill="#595757"/>
    <path id="路径_65" data-name="路径 65" d="M365.491,68.4a1.181,1.181,0,0,1-.936-.345,1.494,1.494,0,0,1-.288-1.008V64.692h-.617v-.569h.617V63.011h1.048v1.112h.849v.569h-.849v2.281c0,.521.089.729.513.729a.716.716,0,0,0,.376-.1v.664a1.675,1.675,0,0,1-.713.137" transform="translate(282 45.246)" fill="#595757"/>
    <path id="路径_66" data-name="路径 66" d="M370.32,65.517c0-.433-.192-.817-.7-.817-.648,0-.9.544-.9,1.313v2.266h-1.072V62.138H368.7v2.546A1.373,1.373,0,0,1,369.911,64a1.352,1.352,0,0,1,1.465,1.442v2.834H370.32Z" transform="translate(282 45.246)" fill="#595757"/>
    <path id="路径_67" data-name="路径 67" d="M380.487,65.285c0,2.1-1.074,3.01-3.131,3.01a13.008,13.008,0,0,1-1.618-.08V62.451c.425-.04.978-.072,1.57-.072,2.065,0,3.179.945,3.179,2.906m-1.137.032c0-1.553-.569-2.242-2.019-2.242a4.59,4.59,0,0,0-.463.024v4.468a3.835,3.835,0,0,0,.5.032c1.425,0,1.986-.657,1.986-2.282" transform="translate(282 45.246)" fill="#595757"/>
    <path id="路径_68" data-name="路径 68" d="M381.758,66.181a2.043,2.043,0,0,1,2.033-2.2,1.853,1.853,0,0,1,1.914,1.938,3.359,3.359,0,0,1-.025.424h-2.81c0,.929.392,1.449,1.258,1.449a2.032,2.032,0,0,0,1.3-.464v.752a2.392,2.392,0,0,1-1.425.353,2.02,2.02,0,0,1-2.249-2.25m2.883-.392c.006-.664-.314-1.241-.858-1.241-.569,0-.888.6-.888,1.241Z" transform="translate(282 45.246)" fill="#595757"/>
    <path id="路径_69" data-name="路径 69" d="M387.17,64.116h1v.528a1.285,1.285,0,0,1,1.192-.672c1.162,0,1.818.825,1.818,2.21,0,1.361-.744,2.193-1.769,2.193a1.409,1.409,0,0,1-1.184-.552v2.346H387.17Zm2.939,2.074c0-.945-.313-1.585-.985-1.593-.561.008-.953.576-1,1.433v.344c.048.856.409,1.345.985,1.345.664,0,1-.633,1-1.529" transform="translate(282 45.246)" fill="#595757"/>
    <path id="路径_70" data-name="路径 70" d="M396.145,68.295h-1.016a2.639,2.639,0,0,1-.056-.528,1.317,1.317,0,0,1-1.2.625,1.249,1.249,0,0,1-1.425-1.315c0-.888.809-1.361,1.842-1.4a3.134,3.134,0,0,1,.7.024v-.32c0-.513-.232-.769-.68-.769a2.655,2.655,0,0,0-1.545.584v-.744a3.22,3.22,0,0,1,1.7-.473,1.4,1.4,0,0,1,1.577,1.458v1.945a5.487,5.487,0,0,0,.1.913m-1.128-1.578v-.471a2.049,2.049,0,0,0-.673-.017c-.417.041-.873.233-.873.753,0,.441.217.7.6.728a.847.847,0,0,0,.7-.224,1.037,1.037,0,0,0,.248-.769" transform="translate(282 45.246)" fill="#595757"/>
    <path id="路径_71" data-name="路径 71" d="M397.658,64.123h1c0,.233.007.53-.009.752a1.3,1.3,0,0,1,1.137-.9,1.257,1.257,0,0,1,.288.032v.969a.75.75,0,0,0-.312-.063,1.16,1.16,0,0,0-1.048,1.249v2.121h-1.057Z" transform="translate(282 45.246)" fill="#595757"/>
    <path id="路径_72" data-name="路径 72" d="M403,68.4a1.181,1.181,0,0,1-.936-.345,1.494,1.494,0,0,1-.288-1.008V64.692h-.618v-.569h.618V63.011h1.048v1.112h.849v.569h-.849v2.281c0,.521.089.729.512.729a.717.717,0,0,0,.377-.1v.664A1.672,1.672,0,0,1,403,68.4" transform="translate(282 45.246)" fill="#595757"/>
    <path id="路径_73" data-name="路径 73" d="M405.048,64.108h.993v.657a1.185,1.185,0,0,1,1.1-.761,1.24,1.24,0,0,1,1.273.857A1.381,1.381,0,0,1,409.692,64c1,0,1.433.632,1.433,1.553v2.739H410.06V65.661c0-.585-.168-.944-.672-.944-.561,0-.769.528-.769,1.264v2.3h-1.065V65.645c0-.5-.192-.928-.7-.928-.528,0-.752.512-.752,1.257v2.305h-1.057Z" transform="translate(282 45.246)" fill="#595757"/>
    <path id="路径_74" data-name="路径 74" d="M412.551,66.181a2.043,2.043,0,0,1,2.033-2.2,1.853,1.853,0,0,1,1.914,1.938,3.551,3.551,0,0,1-.025.424h-2.81c0,.929.393,1.449,1.258,1.449a2.032,2.032,0,0,0,1.3-.464v.752a2.394,2.394,0,0,1-1.425.353,2.02,2.02,0,0,1-2.249-2.25m2.882-.392c.008-.664-.313-1.241-.858-1.241-.567,0-.887.6-.887,1.241Z" transform="translate(282 45.246)" fill="#595757"/>
    <path id="路径_75" data-name="路径 75" d="M420.6,65.565c0-.456-.168-.833-.688-.833-.657,0-.9.553-.9,1.329v2.226h-1.058V64.108h.985v.664a1.394,1.394,0,0,1,1.3-.768,1.337,1.337,0,0,1,1.425,1.473v2.8H420.6Z" transform="translate(282 45.246)" fill="#595757"/>
    <path id="路径_76" data-name="路径 76" d="M424.774,68.4a1.181,1.181,0,0,1-.936-.345,1.494,1.494,0,0,1-.288-1.008V64.692h-.618v-.569h.618V63.011H424.6v1.112h.849v.569H424.6v2.281c0,.521.088.729.512.729a.717.717,0,0,0,.377-.1v.664a1.678,1.678,0,0,1-.713.137" transform="translate(282 45.246)" fill="#595757"/>
    <path id="路径_77" data-name="路径 77" d="M204.482,27.124V33.41l6.6-1.085V26.008Z" transform="translate(282 45.246)" fill="#fcd005"/>
    <path id="路径_78" data-name="路径 78" d="M211.643,21.563v3.158l3.3-.542V21.02Z" transform="translate(282 45.246)" fill="#fcd005"/>
    <path id="路径_79" data-name="路径 79" d="M166.5,59.632v16l-5.219.874V35.186l21.53-3.526v5.281L166.5,39.706V59.632Z" transform="translate(282 45.246)" fill="#f2a5ba"/>
    <path id="路径_80" data-name="路径 80" d="M199.248,34.263v-5.2l-11.183,1.805v5.258Z" transform="translate(282 45.246)" fill="#f2a5ba"/>
    <path id="路径_81" data-name="路径 81" d="M190.975,71.556l-14.183,2.41V79.15l17.2-2.826v-5.27Z" transform="translate(282 45.246)" fill="#3376cd"/>
    <path id="路径_82" data-name="路径 82" d="M204.469,69.311l-5.221.869v5.281l10.434-1.714V36.123L204.469,37Z" transform="translate(282 45.246)" fill="#3376cd"/>
    <path id="路径_83" data-name="路径 83" d="M166.5,75.629v5.213l5.038-.828V74.791Z" transform="translate(282 45.246)" fill="#3376cd"/>
    <path id="路径_84" data-name="路径 84" d="M166.5,75.629l5.038-.838V58.849L166.5,59.7Z" transform="translate(282 45.246)" fill="#6a5ca5"/>
    <path id="路径_85" data-name="路径 85" d="M173,42.318l-6.5,1.1V56.059l16.311-2.766v-4.5L171.7,50.611V46.967l11.112-1.822v-4.49Z" transform="translate(282 45.246)" fill="#6a5ca5"/>
    <path id="路径_86" data-name="路径 86" d="M176.792,62.394l17.2-2.844V55.042l-17.2,2.916Z" transform="translate(282 45.246)" fill="#6a5ca5"/>
    <path id="路径_87" data-name="路径 87" d="M199.248,54.151V70.18l5.221-.869V53.266l-4.686.794Z" transform="translate(282 45.246)" fill="#6a5ca5"/>
    <path id="路径_88" data-name="路径 88" d="M176.792,70.378l17.2-2.99V63.195l-17.2,2.843Z" transform="translate(282 45.246)" fill="#6a5ca5"/>
    <path id="路径_89" data-name="路径 89" d="M199.248,37.885l-11.183,1.889v4.487l11.183-1.88v3.644l-11.183,1.88v4.5l11.718-1.986,4.682-.794v.095h0V37Z" transform="translate(282 45.246)" fill="#6a5ca5"/>
  </g>
</svg>
