<svg xmlns="http://www.w3.org/2000/svg" xmlns:xlink="http://www.w3.org/1999/xlink" width="500" zoomAndPan="magnify" viewBox="0 0 375 374.999991" height="500" preserveAspectRatio="xMidYMid meet" version="1.0"><path fill="#231815" d="M 29.746094 288.71875 L 38.535156 285.546875 L 47.328125 282.523438 L 64.765625 275.890625 L 81.914062 268.828125 C 87.679688 266.523438 93.300781 263.929688 98.921875 261.480469 L 115.636719 253.695312 C 121.113281 250.957031 126.589844 248.21875 132.066406 245.191406 C 142.730469 239.28125 153.253906 232.941406 163.339844 226.167969 L 177.753906 215.210938 C 182.507812 211.464844 187.121094 207.429688 191.441406 203.394531 C 195.929688 199.269531 200.15625 194.898438 204.125 190.277344 C 208.0625 185.691406 211.714844 180.886719 215.078125 175.863281 C 218.453125 170.730469 221.476562 165.394531 224.15625 159.867188 C 226.714844 154.378906 228.78125 148.707031 230.355469 142.859375 C 232.03125 136.960938 233.136719 130.953125 233.667969 124.84375 C 234.175781 118.695312 234.175781 112.542969 233.667969 106.394531 L 234.679688 106.394531 C 231.652344 111.007812 228.914062 115.90625 226.320312 120.808594 C 223.726562 125.707031 221.5625 130.898438 219.546875 136.085938 C 217.527344 141.273438 215.941406 146.320312 214.359375 151.652344 C 212.851562 156.914062 211.652344 162.25 210.753906 167.648438 C 209.320312 178.472656 208.984375 189.332031 209.746094 200.222656 C 209.460938 205.554688 209.460938 210.890625 209.746094 216.222656 C 210.464844 221.554688 211.476562 226.886719 212.628906 232.074219 C 213.78125 237.265625 215.367188 242.597656 217.097656 247.640625 C 218.824219 252.6875 220.84375 257.875 222.859375 262.921875 L 224.445312 266.667969 L 226.175781 270.269531 L 229.777344 277.621094 C 232.226562 282.523438 234.824219 287.277344 237.703125 292.035156 L 239.722656 295.636719 L 241.882812 299.097656 L 246.351562 306.015625 C 247.9375 308.464844 249.523438 310.628906 250.964844 312.933594 L 255.71875 319.851562 L 260.761719 326.625 L 265.808594 333.253906 L 276.039062 346.660156 L 276.902344 347.667969 L 275.75 347.667969 C 265.222656 349.671875 254.609375 350.441406 243.902344 349.976562 C 238.46875 349.71875 233.089844 349.046875 227.761719 347.957031 C 222.261719 346.871094 217.074219 344.949219 212.195312 342.191406 C 209.554688 340.738281 207.167969 338.945312 205.035156 336.8125 C 202.90625 334.679688 201.113281 332.292969 199.65625 329.652344 C 198.222656 326.980469 197.1875 324.164062 196.550781 321.199219 C 195.914062 318.234375 195.699219 315.238281 195.910156 312.210938 C 196.261719 306.492188 197.367188 300.917969 199.226562 295.492188 C 201.003906 290.238281 203.164062 285.144531 205.710938 280.214844 C 211.1875 270.910156 217.339844 262.070312 224.15625 253.695312 C 230.5 245.046875 237.273438 236.832031 244.335938 228.761719 C 251.394531 220.691406 258.746094 213.195312 266.238281 205.554688 L 277.335938 194.457031 C 280.941406 190.710938 284.542969 186.964844 288 183.070312 C 295.0625 175.433594 302.414062 167.648438 308.035156 159.433594 C 314.242188 151.378906 319.671875 142.828125 324.320312 133.777344 C 326.582031 129.140625 328.410156 124.335938 329.796875 119.367188 C 331.179688 114.660156 331.804688 109.855469 331.667969 104.953125 C 331.542969 100.425781 330.4375 96.148438 328.355469 92.125 C 326.070312 88.015625 323.042969 84.558594 319.273438 81.75 C 315.453125 78.652344 311.273438 76.152344 306.738281 74.253906 C 302.070312 72.175781 297.265625 70.492188 292.324219 69.207031 C 282.34375 66.46875 272.207031 64.546875 261.917969 63.445312 C 251.683594 62.289062 241.164062 61.859375 230.644531 61.570312 C 220.121094 61.28125 209.746094 61.570312 199.226562 61.570312 L 199.226562 61.425781 C 209.601562 59.695312 220.121094 58.6875 230.785156 57.964844 C 241.402344 57.390625 252.019531 57.390625 262.636719 57.964844 C 273.371094 58.378906 283.988281 59.722656 294.488281 62.003906 C 299.949219 63.074219 305.253906 64.679688 310.398438 66.816406 C 315.539062 68.949219 320.421875 71.574219 325.039062 74.6875 C 329.9375 78.203125 333.972656 82.527344 337.144531 87.65625 C 340.203125 93.023438 341.933594 98.789062 342.332031 104.953125 C 342.335938 110.878906 341.375 116.644531 339.449219 122.25 C 338.003906 127.707031 336.082031 132.992188 333.6875 138.101562 C 328.886719 147.90625 323.214844 157.179688 316.679688 165.921875 C 310.285156 174.535156 303.464844 182.800781 296.214844 190.710938 C 289.011719 198.636719 281.804688 206.277344 274.023438 213.628906 C 266.238281 220.976562 259.609375 228.039062 252.40625 236.257812 C 245.199219 244.472656 238.714844 251.820312 232.371094 259.894531 C 225.929688 267.886719 220.167969 276.34375 215.078125 285.261719 C 212.550781 289.621094 210.339844 294.136719 208.449219 298.808594 C 206.644531 303.457031 205.492188 308.261719 204.992188 313.222656 C 204.710938 315.476562 204.730469 317.726562 205.046875 319.976562 C 205.363281 322.226562 205.96875 324.394531 206.863281 326.480469 C 207.886719 328.546875 209.171875 330.433594 210.710938 332.148438 C 212.253906 333.863281 213.996094 335.335938 215.941406 336.570312 C 220.105469 339.261719 224.574219 341.277344 229.347656 342.625 C 234.074219 344.027344 238.878906 345.085938 243.757812 345.796875 C 248.921875 346.515625 254.109375 346.945312 259.320312 347.09375 C 264.511719 347.09375 269.84375 347.09375 275.03125 347.09375 L 275.03125 348.101562 L 268.402344 342.914062 L 261.917969 337.292969 C 259.753906 335.417969 257.59375 333.542969 255.574219 331.527344 L 250.242188 325.761719 C 248.226562 323.597656 246.207031 321.582031 244.335938 319.417969 C 242.460938 317.257812 240.441406 315.09375 238.714844 312.933594 C 235.109375 308.464844 231.507812 303.996094 228.191406 299.242188 C 224.878906 294.484375 221.851562 289.585938 218.824219 284.828125 C 215.800781 280.070312 213.347656 274.738281 210.898438 269.40625 C 206.09375 258.675781 202.394531 247.578125 199.800781 236.113281 C 198.527344 230.402344 197.613281 224.640625 197.0625 218.816406 C 196.464844 212.96875 196.226562 207.109375 196.34375 201.230469 C 196.480469 189.503906 198.0625 177.972656 201.097656 166.640625 C 202.648438 161.003906 204.523438 155.480469 206.71875 150.066406 C 208.878906 144.691406 211.328125 139.457031 214.070312 134.355469 C 216.894531 129.394531 219.96875 124.589844 223.292969 119.941406 C 226.691406 115.316406 230.4375 110.992188 234.535156 106.972656 L 235.542969 105.960938 L 235.542969 107.257812 C 235.542969 110.429688 236.695312 113.457031 236.984375 116.628906 C 237.199219 119.796875 237.199219 122.96875 236.984375 126.140625 C 237.101562 132.535156 236.574219 138.878906 235.398438 145.164062 C 234.261719 151.480469 232.53125 157.632812 230.210938 163.613281 C 227.859375 169.636719 225.074219 175.449219 221.851562 181.054688 C 215.351562 191.828125 207.617188 201.628906 198.648438 210.457031 C 194.179688 214.925781 189.425781 219.25 184.238281 223.285156 C 179.050781 227.320312 174.148438 231.066406 168.960938 234.671875 C 163.773438 238.273438 158.441406 241.734375 152.964844 245.046875 L 136.679688 253.695312 C 131.058594 256.578125 125.4375 259.316406 119.671875 261.910156 C 113.910156 264.503906 108.144531 266.957031 102.234375 269.261719 C 96.328125 271.566406 90.5625 273.585938 84.507812 275.601562 C 78.457031 277.621094 72.691406 279.496094 66.636719 281.222656 L 48.480469 285.980469 C 42.28125 287.421875 36.230469 288.71875 30.03125 289.726562 Z M 29.746094 288.71875 " fill-opacity="1" fill-rule="nonzero"/><path fill="#231815" d="M 165.503906 128.734375 L 125.726562 136.375 L 87.96875 121.960938 L 95.605469 161.742188 L 80.042969 198.925781 L 119.816406 191.289062 L 157.574219 205.699219 L 150.515625 167.21875 Z M 142.15625 186.386719 L 121.691406 178.746094 L 99.929688 182.925781 L 108.863281 162.460938 L 104.683594 140.839844 L 125.148438 148.914062 L 146.910156 144.734375 L 137.6875 165.199219 Z M 142.15625 186.386719 " fill-opacity="1" fill-rule="nonzero"/></svg>